<?xml version="1.0" encoding="UTF-8"?>
<svg width="122px" height="34px" viewBox="0 0 122 34" version="1.1" xmlns="http://www.w3.org/2000/svg" xmlns:xlink="http://www.w3.org/1999/xlink">
    <!-- Generator: Sketch 58 (84663) - https://sketch.com -->
    <title>53快服</title>
    <desc>Created with Sketch.</desc>
    <defs>
        <path d="M0.335154287,0.468992199 C0.701632399,1.17345243 0.955776289,1.62979146 1.09758596,1.83800929 C1.80610648,2.87832344 3.17403771,4.33754975 4.8551711,4.77398036 C6.53630449,5.21041097 7.76870065,5.10703406 9.71757072,4.77398036 C10.3984344,4.65762362 11.0099139,4.52807614 11.5520092,4.38533792 L11.5520273,4.38540667 C11.6980523,4.34695708 11.8475985,4.43416416 11.8860481,4.58018915 C11.9141254,4.68682189 11.8754007,4.79988404 11.7878435,4.86691103 C11.4107443,5.15558902 10.9508649,5.46563166 10.4082053,5.79703893 C8.98362908,6.66704084 7.40200358,7.35008427 5.44120764,7.35008427 C4.04909544,7.35008427 2.14854558,6.7342323 0.967855599,4.77398023 C0.259441612,3.59782899 -0.0594854283,2.16783148 0.0110744772,0.48398768 L0.227067495,0.493038666 C0.228392477,0.461419269 0.255099173,0.436860792 0.28671857,0.438185774 C0.307214108,0.43904462 0.325687088,0.450793934 0.335154287,0.468992199 Z" id="path-1"></path>
    </defs>
    <g id="Symbols" stroke="none" stroke-width="1" fill="none" fill-rule="evenodd">
        <g id="sdk注册" transform="translate(-29.000000, -13.000000)">
            <g id="编组" transform="translate(29.000000, 13.000000)">
                <g id="Group-5" transform="translate(40.000000, 6.000000)" fill="#FFFFFF">
                    <polygon id="Fill-20" points="62.1191056 7.24206548 67.97147 7.24206548 67.97147 6.18555297 62.1191056 6.18555297"></polygon>
                    <polygon id="Fill-22" points="62.1191056 11.9751421 67.97147 11.9751421 67.97147 10.9155694 62.1191056 10.9155694"></polygon>
                    <path d="M81.1796626,1.45211297 L70.2556357,1.45211297 L70.2545132,19.070664 L72.6804326,19.070664 L72.6804326,2.56275167 L78.7640329,2.56275167 L78.7649683,3.79177944 C78.7647812,4.55203238 77.3145054,4.84198042 77.3145054,4.84198042 L77.3145054,6.32385206 C77.3145054,6.32385206 81.1796626,5.75849164 81.1796626,3.31975321 L81.1796626,1.45211297 Z" id="Fill-23"></path>
                    <path d="M65.813586,19.0707597 L65.813586,17.3607165 C66.2953276,17.2363984 66.759109,17.0887468 66.7574252,16.1840936 L66.7585477,3.58990599 C66.7585477,2.99547426 66.3168422,2.51178125 65.775608,2.51178125 L60.8869137,2.51178125 L60.8869137,1.4522086 L66.6743599,1.4522086 C68.5532454,1.4522086 69.1833446,1.89688485 69.1833446,3.59277487 L69.1833446,15.4466004 C69.1833446,19.0022891 65.8917872,19.0707597 65.813586,19.0707597" id="Fill-24"></path>
                    <path d="M59.9557775,19.0707597 L59.9563388,17.3612903 C60.4103919,17.2404149 60.9061647,17.1725181 60.9061647,16.1840936 L60.9061647,3.80277681 L63.3322711,3.80277681 L63.3322711,15.4466004 C63.3322711,18.6027499 60.5247002,19.0707597 59.9557775,19.0707597" id="Fill-25"></path>
                    <polygon id="Fill-26" points="42.4236414 13.2370663 44.3096361 13.2370663 44.3096361 2.96227176 42.4236414 2.96227176"></polygon>
                    <polygon id="Fill-27" points="39.3176715 19.0708362 41.5469654 19.0708362 41.5469654 0.532905011 39.3176715 0.532905011"></polygon>
                    <polygon id="Fill-28" points="45.2559074 11.1636318 58.4346717 11.1636318 58.4346717 10.1040592 45.2559074 10.1040592"></polygon>
                    <path d="M54.7859707,2.96231001 L53.2814405,2.96269253 L45.2557203,2.96231001 L45.2557203,4.02188266 L53.2814405,4.02188266 C53.8228619,4.02188266 54.2634449,4.50500189 54.2634449,5.09943362 L54.2634449,10.1509558 L56.6893642,10.1509558 L56.6893642,5.09273957 C56.6893642,4.49199631 56.6235106,2.96231001 54.7859707,2.96231001" id="Fill-29"></path>
                    <path d="M38.3013185,2.96231001 L39.3040892,2.96250127 L39.3944508,2.96231001 L39.3944508,4.02188266 L39.0165409,4.02188266 C38.5467728,4.02188266 38.3220848,4.20759477 38.3220848,4.73738109 L38.3220848,13.2371046 C37.5168749,14.2427423 36.397925,14.298016 36.397925,14.298016 L36.397925,5.09273957 C36.397925,4.49199631 36.4637786,2.96231001 38.3013185,2.96231001" id="Fill-30"></path>
                    <polygon id="Fill-31" points="49.0318255 10.1509175 51.7099342 10.1509175 51.7099342 0.532713753 49.0318255 0.532713753"></polygon>
                    <path d="M58.6476295,19.0594754 L56.7736082,19.0594754 C53.9529414,16.8163945 52.2048277,12.7464115 51.8925844,11.8337255 L54.7330821,11.8337255 C55.6370724,14.7789167 58.0328712,18.4132126 58.6476295,19.0594754" id="Fill-32"></path>
                    <path d="M81.7964788,19.0594754 L80.1353592,19.0594754 C78.1561967,17.815147 74.1956266,13.2371811 73.1560003,9.77348782 L75.5778038,9.77348782 C77.6381608,14.5662371 80.9630192,18.3374742 81.7964788,19.0594754" id="Fill-33"></path>
                    <path d="M73.2863418,19.0594754 L74.9474614,19.0594754 C77.2384931,17.3878752 80.6409914,12.5461638 81.7964227,8.69498057 L79.3748063,8.69498057 C78.0719527,12.7102636 75.22023,17.1870537 73.2863418,19.0594754" id="Fill-34"></path>
                    <path d="M44.5703191,19.0594754 L46.4737126,19.0594754 C49.2941922,16.8163945 51.3958949,13.7350272 51.710009,11.1637466 L48.8189987,11.1637466 C48.1118208,14.9466505 45.1848903,18.4132126 44.5703191,19.0594754" id="Fill-35"></path>
                    <polygon id="Fill-36" points="72.6803764 8.69505707 81.7964227 8.69505707 81.7964227 7.63548442 72.6803764 7.63548442"></polygon>
                    <path d="M10.61177,8.60373109 L3.20679482,8.60373109 L3.20679482,3.6585487 L0.0203786719,3.6585487 L0.0203786719,10.4717538 L9.18993096,10.4717538 C10.867514,10.4717538 12.2326665,12.2192837 12.2326665,13.9344908 C12.2326665,15.6498892 10.867514,17.2744398 9.18993096,17.2744398 L0.0203786719,17.2744398 L0.0203786719,19.1130087 L9.35643579,19.1130087 L11.248043,19.0707406 C13.9051982,19.0707406 15.973787,16.8819771 15.973787,14.0798474 C15.973787,11.441435 14.3177187,8.60373109 10.61177,8.60373109" id="Fill-37"></path>
                    <polygon id="Fill-38" points="0.0202851299 4.00922134 15.5961578 4.00922134 15.5961578 2.36191101 0.0202851299 2.36191101"></polygon>
                    <path d="M32.908021,13.9305891 C32.908021,15.2083879 32.45191,16.3827157 31.697587,17.2806748 C31.3709382,17.6719899 30.9823645,18.0174029 30.5545032,18.2935804 C29.8845551,18.73118 29.1017953,19.0073574 28.2629103,19.070664 L17.7283925,19.070664 L17.7283925,17.306686 L25.5584227,17.306686 C26.1722456,17.306686 26.7522063,17.1282417 27.2419924,16.8174465 C27.4277669,16.7023088 27.6079289,16.5699578 27.7656408,16.4146559 C27.7712533,16.4089181 27.7712533,16.4089181 27.7768658,16.3972513 C28.4243638,15.7928741 28.829775,14.8975926 28.829775,13.9305891 C28.829775,13.0498433 28.4919012,12.1237691 27.9401902,11.5308675 C27.3490045,10.880397 26.4987073,10.4718686 25.5584227,10.4718686 L17.7283925,10.4718686 L17.7283925,8.60365459 L26.3974948,8.60365459 C26.971843,8.60365459 28.829775,8.03944171 28.829775,6.22879654 C28.829775,3.96563351 26.9886806,4.00924047 26.3974948,4.00924047 L17.7283925,4.00924047 L17.7283925,2.36097385 L28.7246338,2.36097385 C29.0793452,2.36097385 29.4284441,2.40706717 29.7607055,2.50480031 C30.5825658,2.72360015 31.3034008,3.21283966 31.8270492,3.86904792 C32.4070098,4.576896 32.7504962,5.48652191 32.7504962,6.47647642 C32.7504962,7.45495543 32.4070098,8.36458133 31.8382742,9.07242942 C31.8382742,9.08409619 31.8326617,9.08964269 31.8212496,9.09557171 C31.7312621,9.21070939 31.6354751,9.31418029 31.5342626,9.41784245 C31.3653257,9.59054897 31.1739386,9.74604221 30.9711395,9.88413092 C31.0557015,9.95317527 31.1400764,10.0279574 31.2246384,10.1029308 C31.3314634,10.2006639 31.4384755,10.3043261 31.5342626,10.413726 C31.6412747,10.5286724 31.7424872,10.6438101 31.8382742,10.7706145 C32.5082223,11.6396936 32.908021,12.7447858 32.908021,13.9305891" id="Fill-39"></path>
                </g>
                <g id="Group-Copy">
                    <path d="M33.5453724,6.02033937 C31.5268145,4.94093174 29.1833396,4.04765305 26.5149477,3.34050331 C23.2418055,2.47308888 19.187309,2.23829894 16.4542973,2.83244628 C13.7182904,3.42724477 10.3810991,5.05054886 7.85366773,7.87584152 C5.48884449,10.5193625 4.19637786,13.6538285 3.80486941,15.7197462 C3.11784903,19.3450255 3.72253235,22.0737022 4.4919382,23.8114837 C5.00431846,24.9687467 5.98797637,26.9140754 8.41804568,28.3963883 C9.39957247,28.9951077 11.5396503,29.9910946 14.1525254,30.0385947 C17.2811416,30.0954705 20.013462,28.950853 21.6686577,27.9394469 C23.4684431,26.8396894 24.7597245,25.7636179 25.5425017,24.7112325 C23.6142903,26.0940615 21.5132814,27.0551876 19.2394752,27.5946108 C16.3217542,28.2867922 12.9659227,28.2407672 10.9731787,27.1727146 C8.70749204,25.9583727 6.65608438,23.8390889 6.34157485,20.50587 C5.97649766,16.6367274 7.09796879,14.1739384 8.38329924,12.0095165 C9.60488737,9.9524331 11.6823114,7.7024638 14.6341588,6.39581567 C17.141365,5.28598996 19.4777632,5.16684145 21.0430788,5.45492274 C22.7975025,5.77780757 24.7833176,6.69146543 26.3613434,9.09361024 C26.9144108,9.93551531 27.5226897,11.6236091 27.6776342,12.2562119 C27.7736495,12.6482206 27.841149,13.0575852 27.8801325,13.4843056 L27.8799831,13.4843193 C27.8855506,13.5452615 27.8635957,13.6055036 27.8201219,13.648573 C27.2450142,14.2183316 26.8233703,14.8221833 26.5551901,15.4601282 C26.2849595,16.1029504 26.0855286,16.8473854 26.1976997,17.9281196 C26.2463106,18.3964708 26.4343432,18.8472802 26.7617974,19.2805478 L26.7616051,19.2806932 C26.7981103,19.3289946 26.8113816,19.3909692 26.7978573,19.4499841 C26.7237444,19.773385 26.4863014,20.2130646 26.0855286,20.7690228 C25.439227,21.6655822 24.8149531,22.5986928 23.2418054,23.6549627 C22.1930403,24.3591426 21.0576201,24.9083845 19.835545,25.3026883 C20.7614203,25.2645147 21.6996335,25.0673628 22.6501846,24.7112325 C24.0760111,24.1770371 25.2495367,23.6390089 26.5885366,22.4850436 C27.3482393,21.8303231 28.02313,21.0689549 28.6132087,20.2009387 C28.6341977,20.1700636 28.7266225,20.0277375 28.8904833,19.7739605 L28.8901994,19.7737772 C28.9038042,19.752707 28.9229289,19.7357731 28.9454912,19.7248192 C29.880942,19.2706661 30.5897867,18.6717662 31.0720253,17.9281196 C31.6925008,16.9713018 32.0728425,15.5214805 31.7538462,14.3194914 C31.5539219,13.5661692 31.0488395,13.0471937 30.2385991,12.7625647 L30.2386341,12.762465 C30.1459221,12.7298962 30.0778225,12.6500746 30.0602625,12.5533902 C29.9339126,11.8577152 29.7909233,11.2526882 29.6312944,10.738309 C29.3726215,9.9047761 28.5936387,8.18060065 27.7180599,7.02996707 C27.5481417,6.80667069 27.3457031,6.56347119 27.1107442,6.30036856 L27.1107146,6.30039505 C26.8340309,5.99056976 26.8608975,5.51511031 27.1707227,5.23842662 C27.3237588,5.10176061 27.5259849,5.03354752 27.7305334,5.04959633 C28.3881391,5.10119188 29.0339952,5.17998977 29.6681016,5.28599 C30.903573,5.49251724 32.1959966,5.73730036 33.5453724,6.02033937 Z" id="Path-142-Copy" fill="#FFFFFF"></path>
                    <path d="M14.3527464,13.9622606 C15.1509804,14.4231212 16.1716783,14.149626 16.632539,13.351392 C17.0933996,12.553158 16.8199044,11.5324601 16.0216704,11.0715994 C15.2234364,10.6107388 14.2027385,10.884234 13.7418778,11.682468 C13.2810172,12.480702 13.5545124,13.5013999 14.3527464,13.9622606 Z" id="Oval-3-Copy-2" fill="#FFFFFF"></path>
                    <circle id="Oval-3-Copy-3" fill="#FFFFFF" cx="20.1939804" cy="14.185854" r="1.66920267"></circle>
                    <g id="Oval-5-Copy" transform="translate(8.511512, 17.523702)">
                        <mask id="mask-2" fill="white">
                            <use xlink:href="#path-1"></use>
                        </mask>
                        <use id="Mask" fill="#FFFFFF" xlink:href="#path-1"></use>
                    </g>
                </g>
            </g>
        </g>
    </g>
</svg>